# xmcd
#
# Track frame offsets: 
#        150
#        16190
#        29021
#        44075
#        55665
#        76280
#        93828
#        106512
#        117435
#        134248
#        149683
#        161736
#
# Disc length: 2314 seconds
#
# Revision: 0
# Processed by: cddbd v1.5.2PL0 Copyright (c) Steve Scherf et al.
# Submitted via: ExactAudioCopy v0.99pb4
#
DISCID=a509080c
DTITLE=Mulkey, Vic, and The Blue Veins - Vic's Christmas Cruise
DYEAR=2001
DGENRE=Christmas/Holiday
TTITLE0=Who Are These Men
TTITLE1=Harley For Christmas
TTITLE2=Times Have Changed
TTITLE3=Missin' You Missin' Christmas
TTITLE4=Spank Me Santa
TTITLE5=Palm Springs Christmas
TTITLE6=Santa Bring Me What I Want
TTITLE7=What's A Poor Boy To Do
TTITLE8=Can't Wait For Christmas
TTITLE9=Santa Don't Like Guns
TTITLE10=Mistletoe Blues
TTITLE11=Santa Daddy
EXTD=
EXTT0=
EXTT1=
EXTT2=
EXTT3=
EXTT4=
EXTT5=
EXTT6=
EXTT7=
EXTT8=
EXTT9=
EXTT10=
EXTT11=
PLAYORDER=
